<svg xmlns="http://www.w3.org/2000/svg" width="44.121" height="44.121" viewBox="0 0 44.121 44.121">
  <g id="call" transform="matrix(0.966, 0.259, -0.259, 0.966, 9.324, 0)">
    <g id="Group_528" data-name="Group 528">
      <path id="Path_796" data-name="Path 796" d="M33.134,23.646a20.453,20.453,0,0,1-6.423-1.023,2.936,2.936,0,0,0-2.855.6L19.8,26.283A22.385,22.385,0,0,1,9.74,16.22l2.968-3.945a2.912,2.912,0,0,0,.716-2.95A20.485,20.485,0,0,1,12.4,2.891,2.894,2.894,0,0,0,9.506,0H2.891A2.894,2.894,0,0,0,0,2.891,33.171,33.171,0,0,0,33.134,36.024a2.894,2.894,0,0,0,2.891-2.891v-6.6A2.894,2.894,0,0,0,33.134,23.646Z" fill="#ec3b5f"/>
    </g>
  </g>
</svg>
