<svg xmlns="http://www.w3.org/2000/svg" width="29.434" height="31.796" viewBox="0 0 29.434 31.796">
  <g id="good-idea" transform="translate(-1.282 -0.103)">
    <path id="Path_783" data-name="Path 783" d="M17.7.1A13.036,13.036,0,0,0,4.679,13.023l-3.35,6.259a.4.4,0,0,0,.252.576l2.638.686.5,5.87a.4.4,0,0,0,.217.322,8.806,8.806,0,0,0,3.732.7,12.616,12.616,0,0,0,1.6-.1l-.62,4.1a.4.4,0,0,0,.4.46H24.6a.4.4,0,0,0,.4-.452c-.337-2.6-.523-7.03.414-7.834,2.42-2.077,5.305-5.583,5.305-10.488A13.031,13.031,0,0,0,17.7.1Zm5.632,13.306a5.645,5.645,0,0,1-.675,1.626.4.4,0,0,0,.058.492l1,1-1.47,1.47-1-1a.405.405,0,0,0-.491-.059,5.706,5.706,0,0,1-1.628.676A.4.4,0,0,0,18.82,18v1.409H16.74V18a.4.4,0,0,0-.306-.389,5.7,5.7,0,0,1-1.627-.676.4.4,0,0,0-.491.059l-1,1-1.469-1.47.995-.995a.4.4,0,0,0,.059-.491,5.732,5.732,0,0,1-.676-1.63.4.4,0,0,0-.389-.306H10.432V11.024h1.409a.4.4,0,0,0,.389-.308A5.635,5.635,0,0,1,12.9,9.089a.4.4,0,0,0-.059-.491l-1-1,1.471-1.471,1,1a.4.4,0,0,0,.492.058,5.663,5.663,0,0,1,1.627-.676.4.4,0,0,0,.305-.389V4.714h2.08V6.123a.4.4,0,0,0,.305.389,5.663,5.663,0,0,1,1.627.676.4.4,0,0,0,.492-.058l1-1L23.711,7.6l-1,1a.4.4,0,0,0-.059.491,5.633,5.633,0,0,1,.675,1.627.4.4,0,0,0,.389.308h1.41V13.1h-1.41a.4.4,0,0,0-.386.306Z" fill="#502442"/>
    <path id="Path_784" data-name="Path 784" d="M17.781,8.521a3.542,3.542,0,1,0,3.541,3.54A3.544,3.544,0,0,0,17.781,8.521Zm0,6.284a2.741,2.741,0,1,1,2.741-2.743A2.745,2.745,0,0,1,17.781,14.805Z" fill="#502442"/>
  </g>
</svg>
