<svg id="messenger_1_" data-name="messenger (1)" xmlns="http://www.w3.org/2000/svg" xmlns:xlink="http://www.w3.org/1999/xlink" width="98.141" height="98.141" viewBox="0 0 98.141 98.141">
  <defs>
    <linearGradient id="linear-gradient" x1="0.332" y1="0.141" x2="0.585" y2="0.682" gradientUnits="objectBoundingBox">
      <stop offset="0" stop-color="#0082ff"/>
      <stop offset="1" stop-color="#0078db"/>
    </linearGradient>
    <linearGradient id="linear-gradient-2" x1="0.738" y1="0.628" x2="-0.899" y2="-0.25" gradientUnits="objectBoundingBox">
      <stop offset="0" stop-color="#0078db" stop-opacity="0"/>
      <stop offset="1" stop-color="#006cb5"/>
    </linearGradient>
    <linearGradient id="linear-gradient-3" x1="0.5" y1="0.332" x2="0.5" y2="0.843" xlink:href="#linear-gradient-2"/>
    <linearGradient id="linear-gradient-4" x1="0.844" y1="0.879" x2="0.483" y2="0.52" xlink:href="#linear-gradient-2"/>
  </defs>
  <path id="Path_791" data-name="Path 791" d="M80.587,96.461a296.428,296.428,0,0,1-63.033,0A17.87,17.87,0,0,1,1.68,80.586a296.421,296.421,0,0,1,0-63.033A17.87,17.87,0,0,1,17.554,1.68a296.422,296.422,0,0,1,63.033,0A17.87,17.87,0,0,1,96.461,17.554a296.421,296.421,0,0,1,0,63.033A17.869,17.869,0,0,1,80.587,96.461Zm0,0" transform="translate(0 0)" fill="url(#linear-gradient)"/>
  <path id="Path_792" data-name="Path 792" d="M114.43,44.411a15.857,15.857,0,0,0-14.086-14.086,263.139,263.139,0,0,0-55.934,0A15.859,15.859,0,0,0,30.324,44.411a263.131,263.131,0,0,0,0,55.933A15.858,15.858,0,0,0,44.411,114.43a263.032,263.032,0,0,0,55.933,0,15.856,15.856,0,0,0,14.086-14.086A263.032,263.032,0,0,0,114.43,44.411Zm0,0" transform="translate(-23.307 -23.307)" fill="url(#linear-gradient-2)"/>
  <path id="Path_793" data-name="Path 793" d="M7.672,409.8q.1,1.018.21,2.035a17.87,17.87,0,0,0,15.874,15.874,296.419,296.419,0,0,0,63.033,0,17.869,17.869,0,0,0,15.874-15.874q.109-1.018.21-2.035Zm0,0" transform="translate(-6.201 -331.253)" fill="url(#linear-gradient-3)"/>
  <path id="Path_794" data-name="Path 794" d="M176.058,159.249q1.39-13.028,1.629-26.08l-26.334-26.334a31.185,31.185,0,0,0-22.686-9.519c-16.676,0-30.2,12.531-30.2,27.989a26.88,26.88,0,0,0,8.591,19.548c.35.369,2.491,2.5,2.66,2.673l.115,9.3a3.261,3.261,0,0,0,.955,2.265L128.508,176.8a296.86,296.86,0,0,0,31.676-1.679A17.87,17.87,0,0,0,176.058,159.249Zm0,0" transform="translate(-79.597 -78.663)" fill="url(#linear-gradient-4)"/>
  <path id="Path_795" data-name="Path 795" d="M128.668,97.316c-16.676,0-30.2,12.531-30.2,27.989a27.22,27.22,0,0,0,11.246,21.79l.122,9.869a.7.7,0,0,0,1.047.6l9.43-5.355a32.435,32.435,0,0,0,8.351,1.085c16.676,0,30.2-12.531,30.2-27.989S145.344,97.316,128.668,97.316Zm2.293,37.01-6.454-6.718a1.215,1.215,0,0,0-1.453-.228l-11.326,6.1a.432.432,0,0,1-.519-.676l13.383-14.187a.972.972,0,0,1,1.414,0l6.452,6.847a1.215,1.215,0,0,0,1.467.234l11.13-6.06a.432.432,0,0,1,.52.675l-13.206,14.006A.972.972,0,0,1,130.96,134.326Zm0,0" transform="translate(-79.597 -78.663)" fill="#fff"/>
</svg>
