<svg xmlns="http://www.w3.org/2000/svg" xmlns:xlink="http://www.w3.org/1999/xlink" width="276.534" height="31.554" viewBox="0 0 276.534 31.554">
  <defs>
    <linearGradient id="linear-gradient" x1="0.5" x2="0.5" y2="1" gradientUnits="objectBoundingBox">
      <stop offset="0" stop-color="#3eadcf"/>
      <stop offset="1" stop-color="#abe9cd"/>
    </linearGradient>
  </defs>
  <path id="whoarewe" d="M-10038.4-679.789a15.322,15.322,0,0,1,15.277-15.277,15.322,15.322,0,0,1,15.276,15.277,15.322,15.322,0,0,1-15.276,15.277A15.322,15.322,0,0,1-10038.4-679.789Zm3.057,0a12.256,12.256,0,0,0,12.221,12.221,12.255,12.255,0,0,0,12.22-12.221,12.255,12.255,0,0,0-12.22-12.221A12.256,12.256,0,0,0-10035.341-679.789ZM-9801-677.023c0-6.186,4.029-10.109,9.824-10.109,5.656,0,9.65,3.853,9.65,9.684a11.518,11.518,0,0,1-.142,1.908h-14.315a4.583,4.583,0,0,0,4.7,4.524,4.034,4.034,0,0,0,3.924-2.367h5.338a9.1,9.1,0,0,1-9.156,6.468C-9796.867-666.914-9801-670.873-9801-677.023Zm5.054-1.838h9.3a4.354,4.354,0,0,0-4.667-4.207A4.549,4.549,0,0,0-9795.946-678.861Zm-71.469,1.838c0-6.186,4.029-10.109,9.826-10.109,5.655,0,9.649,3.853,9.649,9.684a11.519,11.519,0,0,1-.143,1.908H-9862.4a4.58,4.58,0,0,0,4.7,4.524,4.034,4.034,0,0,0,3.923-2.367h5.338a9.1,9.1,0,0,1-9.154,6.468C-9863.279-666.914-9867.415-670.873-9867.415-677.023Zm5.054-1.838h9.3a4.352,4.352,0,0,0-4.666-4.207A4.548,4.548,0,0,0-9862.361-678.861Zm-75.567,1.838a9.674,9.674,0,0,1,10.071-10.109,9.677,9.677,0,0,1,10.074,10.109c0,6.15-4.524,10.109-10.216,10.109C-9933.654-666.914-9937.929-670.873-9937.929-677.023Zm5.017,0c0,3.887,2.263,5.8,4.913,5.8,2.616,0,5.126-1.91,5.126-5.8,0-3.925-2.439-5.8-5.055-5.8S-9932.912-680.947-9932.912-677.023Zm156.511,7.14a2.911,2.911,0,0,1,3.075-2.9,2.892,2.892,0,0,1,3,2.9,2.893,2.893,0,0,1-3,2.9A2.912,2.912,0,0,1-9776.4-669.883Zm-61.183-22.021h5.3l4.348,19.157,5.02-19.157h5.514l4.736,19.051,4.382-19.051h5.339l-6.894,24.671h-5.832l-4.63-17.567-4.842,17.567-5.8.036Zm-160.327,0h5.3l4.347,19.157,5.02-19.157h5.514l4.736,19.051,4.384-19.051h5.337l-6.893,24.671H-9976l-4.631-17.567-4.842,17.567-5.795.036Zm117.488,24.671v-19.582h4.947v3.041a6.794,6.794,0,0,1,6.01-3.323v5.2h-1.307c-2.934,0-4.7,1.132-4.7,4.913v9.756Zm-8.553,0-1.627-4.7h-9.826l-1.626,4.7h-5.2l8.873-24.707h5.761l8.872,24.707Zm-10.111-8.659h7.142l-3.57-10.321Zm-47.255,8.659v-10.816c0-3.145-1.732-4.841-4.348-4.841-2.687,0-4.418,1.7-4.418,4.841v10.816h-4.95v-26.155h4.95v9.012a7.523,7.523,0,0,1,6.079-2.722c4.418,0,7.634,2.969,7.634,8.377v11.488Zm-78.3-3.39v-3.056h3.054v3.056Zm0-4.584v-1.526a2.974,2.974,0,0,1,2.442-3.056,3.056,3.056,0,0,0,2.14-3.513,2.919,2.919,0,0,0-2.444-2.445,3.063,3.063,0,0,0-2.6.612,2.98,2.98,0,0,0-1.071,2.29h-3.054a6.261,6.261,0,0,1,2.139-4.735,6.474,6.474,0,0,1,5.039-1.223,6.181,6.181,0,0,1,5.043,4.889,6.27,6.27,0,0,1-4.431,7.027c-.152,0-.152,0-.152.154v1.526Zm249.166-.226-.178-6.008h1.59c3.677,0,6.433-.672,6.4-3.853a3.092,3.092,0,0,0-3.357-3.323,3.1,3.1,0,0,0-3.43,3.323h-4.666c-.07-4.277,2.935-7.459,8.1-7.459,4.807,0,8.164,2.722,8.164,7.493s-3.429,7.1-8.13,7.1l-.141,2.722Z" transform="translate(10038.897 695.566)" stroke="rgba(0,0,0,0)" stroke-width="1" fill="url(#linear-gradient)"/>
</svg>
